<svg width="16" height="16" viewBox="0 0 16 16" fill="none" xmlns="http://www.w3.org/2000/svg">
<path fill-rule="evenodd" clip-rule="evenodd" d="M6.00016 7.33333V10H4.66683V7.33333H6.00016ZM3.3335 6H4.66683H6.00016H7.3335V7.33333V10V11.3333H6.00016H4.66683H3.3335V10V7.33333V6ZM11.3335 7.33333V10H10.0002V7.33333H11.3335ZM8.66683 6H10.0002H11.3335H12.6668V7.33333V10V11.3333H11.3335H10.0002H8.66683V10V7.33333V6Z" fill="#292929"/>
<path fill-rule="evenodd" clip-rule="evenodd" d="M12 11.3333H4C3.63181 11.3333 3.33333 11.6318 3.33333 12C3.33333 12.3682 3.63181 12.6667 4 12.6667H12C12.3682 12.6667 12.6667 12.3682 12.6667 12C12.6667 11.6318 12.3682 11.3333 12 11.3333ZM4 10C2.89543 10 2 10.8954 2 12C2 13.1046 2.89543 14 4 14H12C13.1046 14 14 13.1046 14 12C14 10.8954 13.1046 10 12 10H4Z" fill="#292929"/>
<path fill-rule="evenodd" clip-rule="evenodd" d="M3.95244 6.00005H12.0476C12.3895 6.00005 12.6667 5.72287 12.6667 5.38095C12.6667 5.11853 12.5012 4.88463 12.2538 4.79721L8.22209 3.37276C8.07838 3.32198 7.92162 3.32198 7.77791 3.37276L3.74619 4.79721C3.49877 4.88463 3.33333 5.11854 3.33333 5.38095C3.33333 5.72287 3.61052 6.00005 3.95244 6.00005ZM3.30202 3.54003C2.52173 3.81572 2 4.55339 2 5.38095C2 6.45925 2.87414 7.33339 3.95244 7.33339H12.0476C13.1259 7.33339 14 6.45925 14 5.38095C14 4.55339 13.4783 3.81572 12.698 3.54004L8.66626 2.11558C8.23515 1.96326 7.76486 1.96326 7.33374 2.11558L3.30202 3.54003Z" fill="#292929"/>
</svg>
