<svg width="19" height="18" viewBox="0 0 19 18" fill="none" xmlns="http://www.w3.org/2000/svg">
<path fill-rule="evenodd" clip-rule="evenodd" d="M13.9943 3.75H5.00189C4.36319 3.75 4.01678 4.49737 4.42959 4.98474L7.28921 8.36093C7.74814 8.90276 8.00001 9.58981 8.00001 10.2999V13.4984C8.00001 14.0453 8.56656 14.4083 9.06344 14.1797L10.5634 13.4897C10.8295 13.3673 11 13.1012 11 12.8084V10.2994C11 9.58992 11.2514 8.90341 11.7097 8.36176L14.5669 4.98441C14.9793 4.49696 14.6328 3.75 13.9943 3.75ZM5.00189 2.25H13.9943C15.9098 2.25 16.9492 4.49086 15.7121 5.95322L12.8548 9.33057C12.6257 9.6014 12.5 9.94465 12.5 10.2994V12.8084C12.5 13.687 11.9885 14.4853 11.1903 14.8525L9.69029 15.5425C8.19965 16.2282 6.50001 15.1392 6.50001 13.4984V10.2999C6.50001 9.94485 6.37407 9.60132 6.14461 9.3304L3.28498 5.95422C2.04658 4.49212 3.0858 2.25 5.00189 2.25Z" fill="#292929"/>
</svg>
