<svg width="16" height="16" viewBox="0 0 16 16" fill="none" xmlns="http://www.w3.org/2000/svg">
<path fill-rule="evenodd" clip-rule="evenodd" d="M11.3335 6H14.6668V10H11.3335C10.2289 10 9.3335 9.10457 9.3335 8C9.3335 6.89543 10.2289 6 11.3335 6ZM11.3335 8.66667C11.7017 8.66667 12.0002 8.36819 12.0002 8C12.0002 7.63181 11.7017 7.33333 11.3335 7.33333C10.9653 7.33333 10.6668 7.63181 10.6668 8C10.6668 8.36819 10.9653 8.66667 11.3335 8.66667Z" fill="#292929"/>
<path fill-rule="evenodd" clip-rule="evenodd" d="M5.17263 2.66663H10.8277C11.3643 2.66662 11.8073 2.66661 12.168 2.69609C12.5428 2.72671 12.8872 2.79242 13.2108 2.95728C13.7126 3.21294 14.1205 3.62089 14.3762 4.12265C14.541 4.44621 14.6068 4.79068 14.6374 5.16541C14.6668 5.5262 14.6668 5.9691 14.6668 6.50574V9.49418C14.6668 10.0308 14.6668 10.4737 14.6374 10.8345C14.6068 11.2092 14.541 11.5537 14.3762 11.8773C14.1205 12.379 13.7126 12.787 13.2108 13.0426C12.8872 13.2075 12.5428 13.2732 12.168 13.3038C11.8072 13.3333 11.3643 13.3333 10.8277 13.3333H5.17265C4.63599 13.3333 4.19308 13.3333 3.83228 13.3038C3.45755 13.2732 3.11308 13.2075 2.78952 13.0426C2.28776 12.787 1.87981 12.379 1.62415 11.8773C1.45929 11.5537 1.39358 11.2092 1.36296 10.8345C1.33348 10.4737 1.33349 10.0308 1.3335 9.49416V6.50576C1.33349 5.96911 1.33348 5.52621 1.36296 5.16541C1.39358 4.79068 1.45929 4.44621 1.62415 4.12265C1.87981 3.62089 2.28776 3.21294 2.78952 2.95728C3.11308 2.79242 3.45755 2.72671 3.83228 2.69609C4.19308 2.66661 4.63598 2.66662 5.17263 2.66663ZM3.94086 4.02499C3.64858 4.04887 3.49911 4.09216 3.39484 4.14528C3.14396 4.27312 2.93999 4.47709 2.81215 4.72797C2.75903 4.83224 2.71574 4.98171 2.69186 5.27399C2.66735 5.57404 2.66683 5.96224 2.66683 6.53329V9.46663C2.66683 10.0377 2.66735 10.4259 2.69186 10.7259C2.71574 11.0182 2.75903 11.1677 2.81215 11.2719C2.93999 11.5228 3.14396 11.7268 3.39484 11.8546C3.49911 11.9078 3.64858 11.951 3.94086 11.9749C4.24091 11.9994 4.62911 12 5.20016 12H10.8002C11.3712 12 11.7594 11.9994 12.0595 11.9749C12.3517 11.951 12.5012 11.9078 12.6055 11.8546C12.8564 11.7268 13.0603 11.5228 13.1882 11.2719C13.2413 11.1677 13.2846 11.0182 13.3085 10.7259C13.333 10.4259 13.3335 10.0377 13.3335 9.46663V6.53329C13.3335 5.96224 13.333 5.57404 13.3085 5.27399C13.2846 4.98171 13.2413 4.83224 13.1882 4.72797C13.0603 4.47709 12.8564 4.27312 12.6055 4.14528C12.5012 4.09216 12.3517 4.04887 12.0595 4.02499C11.7594 4.00048 11.3712 3.99996 10.8002 3.99996H5.20016C4.62911 3.99996 4.24091 4.00048 3.94086 4.02499Z" fill="#292929"/>
</svg>
